<?xml version="1.0" encoding="utf-8"?>
<!-- Generator: Adobe Illustrator 21.1.0, SVG Export Plug-In . SVG Version: 6.00 Build 0)  -->
<svg version="1.1" id="Layer_1" xmlns="http://www.w3.org/2000/svg" xmlns:xlink="http://www.w3.org/1999/xlink" x="0px" y="0px"
	 viewBox="0 0 16.8 16.8" style="enable-background:new 0 0 16.8 16.8;" xml:space="preserve">
<style type="text/css">
	.st0{fill:#E54E4E;}
</style>
<path class="st0" d="M10.5,8.4l6-6c0.4-0.4,0.4-1,0-1.4l-0.7-0.7c-0.4-0.4-1-0.4-1.4,0l-6,6l-6-6C2-0.1,1.4-0.1,1,0.3L0.3,1
	c-0.4,0.4-0.4,1,0,1.4l6,6l-6,6c-0.4,0.4-0.4,1,0,1.4L1,16.6c0.4,0.4,1,0.4,1.4,0l6-6l6,6c0.4,0.4,1,0.4,1.4,0l0.7-0.7
	c0.4-0.4,0.4-1,0-1.4L10.5,8.4z"/>
</svg>
