<svg xmlns="http://www.w3.org/2000/svg" width="25" height="25" viewBox="0 0 25 25">
    <path fill="#FFF" fill-rule="evenodd" d="M0 13c0 5.083 3.163 9.426 7.627 11.174-.105-.95-.2-2.406.041-3.442.219-.937 1.408-5.965 1.408-5.965s-.36-.719-.36-1.781c0-1.669.968-2.915 2.172-2.915 1.024 0 1.518.769 1.518 1.69 0 1.03-.655 2.57-.993 3.996-.283 1.194.598 2.168 1.776 2.168 2.133 0 3.773-2.249 3.773-5.495 0-2.873-2.064-4.882-5.012-4.882-3.415 0-5.419 2.561-5.419 5.208 0 1.03.397 2.137.893 2.738a.359.359 0 0 1 .083.345c-.09.379-.293 1.194-.333 1.36-.052.22-.174.266-.402.161-1.498-.698-2.435-2.889-2.435-4.649 0-3.785 2.75-7.261 7.929-7.261 4.162 0 7.398 2.966 7.398 6.93 0 4.136-2.608 7.464-6.228 7.464-1.216 0-2.358-.632-2.75-1.378l-.747 2.852c-.272 1.043-1.003 2.35-1.492 3.146C9.57 24.812 10.763 25 12 25c6.627 0 12-5.372 12-12C24 6.373 18.627 1 12 1S0 6.372 0 13z"/>
</svg>
